<svg xmlns="http://www.w3.org/2000/svg" viewBox="0 0 222.75 222.75"><defs><style>.cls-1{fill:#272d5b;}.cls-2{fill:#939598;}.cls-3{fill:#a70050;}</style></defs><title>GeeksConOnda_Circle_Brand_Color</title><g id="Layer_2" data-name="Layer 2"><g id="Layer_1-2" data-name="Layer 1"><path class="cls-1" d="M52.37,88.78a11.47,11.47,0,0,1-4.67,3.06,16.7,16.7,0,0,1-6.17,1,9.87,9.87,0,0,1-5-1.27A8.23,8.23,0,0,1,33.23,88,13,13,0,0,1,32,82.5a19.87,19.87,0,0,1,.15-3.43l.8-5.33q1-6.73,4.38-10.4a11,11,0,0,1,8.76-3.56q4.6.09,6.93,2.77t2.38,8l-6.17,0-.07-1.77c-.19-2.3-1.32-3.48-3.38-3.56q-4.57-.16-6,6l-.33,1.66-.89,6.22a21.35,21.35,0,0,0-.22,3.63,5.71,5.71,0,0,0,1.12,3.59,3.74,3.74,0,0,0,2.84,1.16,7.6,7.6,0,0,0,3.85-1.13l1.13-5.92H42.79l.87-4.92H54.41Z"/><path class="cls-1" d="M74.74,78.49H64.92L63.43,87H75.07l-.95,5.4h-18l5.57-32.21H79.67l-1,5.42H67.15l-1.33,7.61h9.85Z"/><path class="cls-1" d="M96.53,78.49H86.71L85.23,87H96.86l-1,5.4H78l5.57-32.21h17.94l-.95,5.42H88.94l-1.33,7.61h9.85Z"/><path class="cls-1" d="M110.87,80.09l-3.23,3.4-1.55,8.94H99.74l5.57-32.21h6.35l-2.39,13.69,2.57-3.4,7.43-10.29h8.12L115.73,74.67l5.89,17.76h-7.24Z"/><path class="cls-1" d="M139.12,83.8a4,4,0,0,0-.48-2.73,7,7,0,0,0-2.9-2.15,21.55,21.55,0,0,1-3.68-2.17A8.56,8.56,0,0,1,128.34,69a9.4,9.4,0,0,1,1.7-4.81,10,10,0,0,1,4-3.29,11.73,11.73,0,0,1,5.35-1.1,8.23,8.23,0,0,1,6.47,2.86A10,10,0,0,1,148,69.75l-6.33,0c.17-3-.8-4.56-2.89-4.6A3.74,3.74,0,0,0,136,66.18,4.65,4.65,0,0,0,134.6,69c-.22,1.73,1,3.2,3.59,4.43a14.52,14.52,0,0,1,5.62,4.13,8.84,8.84,0,0,1,1.61,6.2,9.3,9.3,0,0,1-3.32,6.71,10.84,10.84,0,0,1-7.45,2.43,9.22,9.22,0,0,1-7.1-3.06,10.25,10.25,0,0,1-2.39-7.59l6.37,0a6.29,6.29,0,0,0,.74,4.08,3.36,3.36,0,0,0,2.89,1.23,3.67,3.67,0,0,0,2.72-1.08A4.84,4.84,0,0,0,139.12,83.8Z"/><path class="cls-2" d="M87.22,119.7A12.92,12.92,0,0,1,83.36,128a11.18,11.18,0,0,1-8.27,2.91,8.51,8.51,0,0,1-6.63-2.83A11.85,11.85,0,0,1,66,120.46a21,21,0,0,1,.18-3.35l.82-5.33q1-6.82,4.5-10.46a11.05,11.05,0,0,1,8.59-3.52,8.63,8.63,0,0,1,6.9,3q2.41,2.91,2.42,8.44l-6.4,0L83,107c-.05-2.47-1.21-3.75-3.48-3.82a4.75,4.75,0,0,0-4.16,1.91c-1,1.34-1.7,3.5-2.05,6.49l-.8,5.56c-.21,1.77-.32,2.92-.33,3.47q-.23,4.78,3.36,4.93a4.52,4.52,0,0,0,3.56-1.18q1.33-1.29,1.86-4.61Z"/><path class="cls-2" d="M100.78,130.9A9,9,0,0,1,94,128.11a11.48,11.48,0,0,1-2.71-7.5,18.08,18.08,0,0,1,.14-3.36l.81-5.36a22.22,22.22,0,0,1,2.5-7.61,12.72,12.72,0,0,1,4.63-4.93,11.68,11.68,0,0,1,6.24-1.55,8.67,8.67,0,0,1,6.73,2.93,12.21,12.21,0,0,1,2.62,7.78,21.08,21.08,0,0,1-.19,3.52l-.73,4.93q-1,6.63-4.48,10.34A11.28,11.28,0,0,1,100.78,130.9Zm7.68-19.09a34.42,34.42,0,0,0,.26-3.52q-.1-4.94-3.56-5.07a4.89,4.89,0,0,0-4.28,2c-1.09,1.41-1.84,3.62-2.27,6.63l-.77,5.42a20,20,0,0,0-.2,3.43q.1,4.65,3.65,4.8a4.87,4.87,0,0,0,4.13-1.86q1.62-2,2.26-6.37Z"/><path class="cls-2" d="M138.28,130.46h-6.2l-5.62-21.35-3.71,21.35H116.4L122,98.24h6.22l5.64,21.37,3.72-21.37h6.33Z"/><path class="cls-3" d="M92.86,169.38a9,9,0,0,1-6.73-2.79,11.42,11.42,0,0,1-2.71-7.5,18.07,18.07,0,0,1,.13-3.36l.82-5.36a22.22,22.22,0,0,1,2.5-7.61,12.77,12.77,0,0,1,4.62-4.93,11.68,11.68,0,0,1,6.24-1.55,8.7,8.7,0,0,1,6.74,2.93,12.27,12.27,0,0,1,2.62,7.78,21,21,0,0,1-.2,3.52l-.73,4.93q-1,6.65-4.48,10.34A11.25,11.25,0,0,1,92.86,169.38Zm7.68-19.09a32.26,32.26,0,0,0,.27-3.52q-.12-4.94-3.57-5.07a4.9,4.9,0,0,0-4.28,2,14.28,14.28,0,0,0-2.26,6.63l-.78,5.42a21.12,21.12,0,0,0-.2,3.43c.08,3.1,1.29,4.7,3.65,4.8a4.9,4.9,0,0,0,4.14-1.86q1.62-2,2.26-6.37Z"/><path class="cls-3" d="M130.36,168.94h-6.19l-5.62-21.35-3.72,21.35h-6.35l5.58-32.22h6.21l5.65,21.38,3.71-21.38H136Z"/><path class="cls-3" d="M135.6,168.94l5.58-32.22,7.94,0a10.36,10.36,0,0,1,5.94,1.83,9.63,9.63,0,0,1,3.48,4.85,15.38,15.38,0,0,1,.56,6.92l-.71,4.71q-1,6.51-4.7,10.18a12.9,12.9,0,0,1-9.37,3.7Zm11-26.8-3.72,21.4,1.57,0a6.72,6.72,0,0,0,5.11-1.91q1.81-1.92,2.44-6.16l.75-5.22a22.36,22.36,0,0,0,.24-3.72,5,5,0,0,0-1.12-3.28,4.21,4.21,0,0,0-3-1.12Z"/><path class="cls-3" d="M176.31,162.34h-8.56l-2.81,6.6H158l15.35-32.22h5.82l4.23,32.22h-6.58Zm-6.24-5.42h5.8L175,145.51Z"/><path class="cls-3" d="M111.37,222.75A111.38,111.38,0,1,1,222.75,111.37,111.5,111.5,0,0,1,111.37,222.75Zm0-212A100.65,100.65,0,1,0,212,111.37,100.78,100.78,0,0,0,111.37,10.72Z"/></g></g></svg>